{
    "asset" : {
        "generator" : "Khronos glTF Blender I/O v1.8.19",
        "version" : "2.0"
    },
    "scene" : 0,
    "scenes" : [
        {
            "name" : "Scene",
            "nodes" : [
                0
            ]
        }
    ],
    "nodes" : [
        {
            "mesh" : 0,
            "name" : "\u5766\u514b03"
        }
    ],
    "materials" : [
        {
            "doubleSided" : true,
            "name" : "Material #2172",
            "pbrMetallicRoughness" : {
                "baseColorTexture" : {
                    "index" : 0
                },
                "metallicFactor" : 0.25984251499176025,
                "roughnessFactor" : 0.7283464670181274
            }
        },
        {
            "doubleSided" : true,
            "name" : "Material #2159.001",
            "pbrMetallicRoughness" : {
                "baseColorTexture" : {
                    "index" : 1
                },
                "metallicFactor" : 0,
                "roughnessFactor" : 0.7834645509719849
            }
        }
    ],
    "meshes" : [
        {
            "name" : "Obj3d66-1270365-3-93",
            "primitives" : [
                {
                    "attributes" : {
                        "POSITION" : 0,
                        "NORMAL" : 1,
                        "TEXCOORD_0" : 2,
                        "TEXCOORD_1" : 3,
                        "TEXCOORD_2" : 4,
                        "TEXCOORD_3" : 5,
                        "TEXCOORD_4" : 6,
                        "TEXCOORD_5" : 7,
                        "TEXCOORD_6" : 8,
                        "TEXCOORD_7" : 9
                    },
                    "indices" : 10,
                    "material" : 0
                },
                {
                    "attributes" : {
                        "POSITION" : 11,
                        "NORMAL" : 12,
                        "TEXCOORD_0" : 13,
                        "TEXCOORD_1" : 14,
                        "TEXCOORD_2" : 15,
                        "TEXCOORD_3" : 16,
                        "TEXCOORD_4" : 17,
                        "TEXCOORD_5" : 18,
                        "TEXCOORD_6" : 19,
                        "TEXCOORD_7" : 20
                    },
                    "indices" : 21,
                    "material" : 1
                }
            ]
        }
    ],
    "textures" : [
        {
            "sampler" : 0,
            "source" : 0
        },
        {
            "sampler" : 0,
            "source" : 1
        }
    ],
    "images" : [
        {
            "bufferView" : 11,
            "mimeType" : "image/jpeg",
            "name" : "Image_0"
        },
        {
            "bufferView" : 23,
            "mimeType" : "image/jpeg",
            "name" : "Image_1"
        }
    ],
    "accessors" : [
        {
            "bufferView" : 0,
            "componentType" : 5126,
            "count" : 9276,
            "max" : [
                1.16059410572052,
                2.9574368000030518,
                2.9574368000030518
            ],
            "min" : [
                -1.16059410572052,
                0.023979216814041138,
                -2.9574368000030518
            ],
            "type" : "VEC3"
        },
        {
            "bufferView" : 1,
            "componentType" : 5126,
            "count" : 9276,
            "type" : "VEC3"
        },
        {
            "bufferView" : 2,
            "componentType" : 5126,
            "count" : 9276,
            "type" : "VEC2"
        },
        {
            "bufferView" : 3,
            "componentType" : 5126,
            "count" : 9276,
            "type" : "VEC2"
        },
        {
            "bufferView" : 4,
            "componentType" : 5126,
            "count" : 9276,
            "type" : "VEC2"
        },
        {
            "bufferView" : 5,
            "componentType" : 5126,
            "count" : 9276,
            "type" : "VEC2"
        },
        {
            "bufferView" : 6,
            "componentType" : 5126,
            "count" : 9276,
            "type" : "VEC2"
        },
        {
            "bufferView" : 7,
            "componentType" : 5126,
            "count" : 9276,
            "type" : "VEC2"
        },
        {
            "bufferView" : 8,
            "componentType" : 5126,
            "count" : 9276,
            "type" : "VEC2"
        },
        {
            "bufferView" : 9,
            "componentType" : 5126,
            "count" : 9276,
            "type" : "VEC2"
        },
        {
            "bufferView" : 10,
            "componentType" : 5123,
            "count" : 18846,
            "type" : "SCALAR"
        },
        {
            "bufferView" : 12,
            "componentType" : 5126,
            "count" : 718,
            "max" : [
                1.1382135152816772,
                0.9735562205314636,
                1.7840538024902344
            ],
            "min" : [
                -1.158995509147644,
                0,
                -2.7911808490753174
            ],
            "type" : "VEC3"
        },
        {
            "bufferView" : 13,
            "componentType" : 5126,
            "count" : 718,
            "type" : "VEC3"
        },
        {
            "bufferView" : 14,
            "componentType" : 5126,
            "count" : 718,
            "type" : "VEC2"
        },
        {
            "bufferView" : 15,
            "componentType" : 5126,
            "count" : 718,
            "type" : "VEC2"
        },
        {
            "bufferView" : 16,
            "componentType" : 5126,
            "count" : 718,
            "type" : "VEC2"
        },
        {
            "bufferView" : 17,
            "componentType" : 5126,
            "count" : 718,
            "type" : "VEC2"
        },
        {
            "bufferView" : 18,
            "componentType" : 5126,
            "count" : 718,
            "type" : "VEC2"
        },
        {
            "bufferView" : 19,
            "componentType" : 5126,
            "count" : 718,
            "type" : "VEC2"
        },
        {
            "bufferView" : 20,
            "componentType" : 5126,
            "count" : 718,
            "type" : "VEC2"
        },
        {
            "bufferView" : 21,
            "componentType" : 5126,
            "count" : 718,
            "type" : "VEC2"
        },
        {
            "bufferView" : 22,
            "componentType" : 5123,
            "count" : 2028,
            "type" : "SCALAR"
        }
    ],
    "bufferViews" : [
        {
            "buffer" : 0,
            "byteLength" : 111312,
            "byteOffset" : 0
        },
        {
            "buffer" : 0,
            "byteLength" : 111312,
            "byteOffset" : 111312
        },
        {
            "buffer" : 0,
            "byteLength" : 74208,
            "byteOffset" : 222624
        },
        {
            "buffer" : 0,
            "byteLength" : 74208,
            "byteOffset" : 296832
        },
        {
            "buffer" : 0,
            "byteLength" : 74208,
            "byteOffset" : 371040
        },
        {
            "buffer" : 0,
            "byteLength" : 74208,
            "byteOffset" : 445248
        },
        {
            "buffer" : 0,
            "byteLength" : 74208,
            "byteOffset" : 519456
        },
        {
            "buffer" : 0,
            "byteLength" : 74208,
            "byteOffset" : 593664
        },
        {
            "buffer" : 0,
            "byteLength" : 74208,
            "byteOffset" : 667872
        },
        {
            "buffer" : 0,
            "byteLength" : 74208,
            "byteOffset" : 742080
        },
        {
            "buffer" : 0,
            "byteLength" : 37692,
            "byteOffset" : 816288
        },
        {
            "buffer" : 0,
            "byteLength" : 34820,
            "byteOffset" : 853980
        },
        {
            "buffer" : 0,
            "byteLength" : 8616,
            "byteOffset" : 888800
        },
        {
            "buffer" : 0,
            "byteLength" : 8616,
            "byteOffset" : 897416
        },
        {
            "buffer" : 0,
            "byteLength" : 5744,
            "byteOffset" : 906032
        },
        {
            "buffer" : 0,
            "byteLength" : 5744,
            "byteOffset" : 911776
        },
        {
            "buffer" : 0,
            "byteLength" : 5744,
            "byteOffset" : 917520
        },
        {
            "buffer" : 0,
            "byteLength" : 5744,
            "byteOffset" : 923264
        },
        {
            "buffer" : 0,
            "byteLength" : 5744,
            "byteOffset" : 929008
        },
        {
            "buffer" : 0,
            "byteLength" : 5744,
            "byteOffset" : 934752
        },
        {
            "buffer" : 0,
            "byteLength" : 5744,
            "byteOffset" : 940496
        },
        {
            "buffer" : 0,
            "byteLength" : 5744,
            "byteOffset" : 946240
        },
        {
            "buffer" : 0,
            "byteLength" : 4056,
            "byteOffset" : 951984
        },
        {
            "buffer" : 0,
            "byteLength" : 1411,
            "byteOffset" : 956040
        }
    ],
    "samplers" : [
        {
            "magFilter" : 9729,
            "minFilter" : 9987
        }
    ],
    "buffers" : [
        {
            "byteLength" : 957452,
            "uri" : "data:application/octet-stream;base64,"
        }
    ]
}
